<svg xmlns="http://www.w3.org/2000/svg"  viewBox="0 0 550 132" version="1.1">
<g id="astra">
<path id="luna" style=" stroke:none;fill-rule:nonzero;fill-opacity:1;" d="M 288.75 4.375 C 268.109375 11.644531 250.34375 20.449219 233.441406 31.75 C 222.132812 39.324219 208.710938 49.652344 195.703125 60.789062 L 193.824219 62.40625 L 192.90625 61.214844 C 189.480469 56.671875 185.121094 52.296875 180.734375 49.007812 C 175.925781 45.398438 170.152344 42.410156 164.21875 40.449219 C 151.730469 36.347656 137.28125 36.910156 127.34375 41.902344 C 122.519531 44.328125 118.394531 47.8125 115.871094 51.613281 C 110.855469 59.15625 110.578125 69.691406 115.128906 79.742188 C 118.804688 87.835938 127.152344 96.585938 138.007812 103.691406 C 139.214844 104.484375 140.214844 105.1875 140.214844 105.242188 C 140.230469 105.296875 138.980469 106.171875 137.445312 107.175781 C 114.183594 122.46875 87.289062 129.929688 58.492188 129.066406 C 43.699219 128.613281 32.527344 126.265625 23.234375 121.644531 C 13.871094 117.007812 8.484375 111 6.828125 103.375 C 6.566406 102.167969 6.523438 101.566406 6.523438 98.957031 C 6.523438 96.203125 6.550781 95.789062 6.894531 94.214844 C 8.417969 87.039062 12.691406 81.046875 20.289062 75.410156 C 31.417969 67.152344 45.714844 62.585938 61.753906 62.144531 C 67.824219 61.980469 72.71875 62.269531 77.175781 63.039062 C 86.742188 64.683594 94.007812 68.550781 97.558594 73.898438 C 100.492188 78.316406 100.96875 84.160156 98.832031 89.605469 C 96.832031 94.71875 92.046875 99.371094 85.191406 102.867188 C 79.121094 105.96875 71.675781 107.847656 62.847656 108.503906 C 59.972656 108.710938 53.542969 108.710938 50.171875 108.503906 C 47.976562 108.367188 47.386719 108.367188 46.894531 108.519531 C 45.371094 108.984375 45.894531 110.097656 47.867188 110.632812 C 51.0625 111.480469 60.464844 111.605469 67.03125 110.878906 C 69.730469 110.589844 73.570312 109.929688 75.816406 109.382812 C 86.976562 106.652344 96.078125 101.015625 100.792969 93.9375 C 104.960938 87.65625 106.015625 79.167969 103.410156 72.84375 C 99.476562 63.339844 86.78125 56.332031 70.390625 54.589844 C 66.179688 54.148438 58.394531 54.011719 54.28125 54.3125 C 40.425781 55.316406 28.71875 59.058594 18.382812 65.792969 C 8.210938 72.433594 2.332031 80.085938 0.464844 89.152344 C 0.0976562 90.921875 0.0820312 91.183594 0.0820312 94.84375 C 0.0820312 99.027344 0.164062 99.769531 0.972656 102.855469 C 4.222656 115.144531 16.066406 124.375 34.476562 128.941406 C 42.699219 130.984375 51.910156 131.945312 63.109375 131.945312 C 75.445312 131.945312 86.386719 130.683594 97.558594 127.96875 C 112.621094 124.320312 127.933594 117.558594 141.65625 108.53125 L 143.695312 107.1875 L 146.027344 108.339844 C 158.445312 114.429688 170.976562 118.121094 183.820312 119.476562 C 187.65625 119.875 187.425781 119.835938 187.191406 120.191406 C 186.617188 121.125 181.203125 131.835938 181.269531 131.917969 C 181.378906 132.015625 198.992188 130.191406 199.378906 130.039062 C 199.527344 129.96875 200.871094 127.980469 202.460938 125.429688 C 204.011719 122.960938 205.328125 120.917969 205.410156 120.902344 C 205.476562 120.875 206.628906 120.765625 207.945312 120.644531 C 216.59375 119.847656 223.570312 117.941406 230.632812 114.457031 C 235.414062 112.097656 238.226562 109.890625 238.9375 107.902344 C 239.0625 107.53125 239.417969 107.132812 240.15625 106.53125 C 241.746094 105.242188 244.859375 102.511719 248 99.699219 C 253.742188 94.527344 264.035156 85.847656 264.214844 86.023438 C 264.257812 86.050781 264.378906 87.285156 264.503906 88.742188 C 265.230469 97.382812 263.503906 106.378906 259.734375 113.566406 C 256.25 120.175781 250.988281 125.882812 246.601562 127.777344 C 243.597656 129.078125 240.210938 129.09375 239.117188 127.789062 C 238.816406 127.417969 238.773438 127.296875 238.855469 126.761719 C 238.964844 125.980469 239.363281 125.101562 240.324219 123.441406 C 241.28125 121.753906 241.527344 121.125 241.527344 120.273438 C 241.527344 118.875 240.417969 117.652344 238.621094 117.117188 C 237.8125 116.871094 237.429688 116.832031 236.210938 116.886719 C 234.015625 116.996094 232.414062 117.707031 230.960938 119.21875 C 230.054688 120.164062 229.601562 121.164062 229.507812 122.398438 C 229.21875 126.390625 232.507812 129.792969 238.035156 131.191406 C 240.28125 131.765625 241.417969 131.875 245.023438 131.875 C 247.695312 131.875 248.78125 131.820312 249.929688 131.628906 C 259.035156 130.09375 266.601562 125.898438 280.183594 114.8125 C 284.722656 111.125 287.628906 108.449219 288.023438 107.613281 C 288.09375 107.449219 288.574219 107.011719 289.066406 106.625 C 289.574219 106.242188 291.246094 104.828125 292.796875 103.484375 C 297.304688 99.5625 303.664062 94.269531 304.296875 93.882812 C 304.40625 93.816406 303.898438 94.488281 303.171875 95.367188 C 298.839844 100.578125 297.660156 102.074219 295.441406 105.0625 C 290.394531 111.867188 287.722656 116.953125 287.492188 120.191406 C 287.339844 122.371094 287.914062 124.921875 288.972656 126.679688 C 289.585938 127.707031 291.136719 129.285156 292.246094 129.996094 C 293.234375 130.640625 294.769531 131.273438 296.195312 131.628906 C 296.894531 131.808594 297.730469 131.863281 299.648438 131.875 C 301.980469 131.875 302.308594 131.847656 303.691406 131.492188 C 307.503906 130.519531 311.4375 128.503906 316.851562 124.703125 C 322.980469 120.410156 332.65625 112.703125 336.316406 109.175781 C 340.238281 105.433594 344.171875 101.960938 348.515625 98.410156 C 356.933594 91.523438 362.292969 87.726562 366.335938 85.777344 C 368.871094 84.542969 370.203125 84.171875 372.09375 84.160156 C 373.808594 84.144531 374.316406 84.324219 374.765625 85.078125 C 375.65625 86.519531 374.398438 88.851562 369.625 94.570312 C 368.007812 96.515625 339.8125 129.40625 338.675781 130.667969 C 338.523438 130.847656 338.429688 131.011719 338.46875 131.054688 C 338.511719 131.09375 342.171875 130.847656 346.597656 130.503906 L 354.65625 129.886719 L 357.140625 127.460938 C 368.214844 116.609375 377.824219 108.382812 386.019531 102.691406 L 387.351562 101.769531 L 386.472656 103.757812 C 384.9375 107.242188 384.527344 109.273438 384.964844 111.25 C 385.746094 114.773438 388.914062 116.609375 394.230469 116.609375 C 398.726562 116.625 402.703125 115.117188 408.554688 111.179688 C 409.777344 110.355469 410.652344 109.617188 411.957031 108.3125 C 412.984375 107.269531 413.640625 106.679688 413.574219 106.886719 C 413.492188 107.078125 413.273438 107.996094 413.066406 108.929688 C 412.765625 110.328125 412.683594 111.070312 412.628906 113.265625 C 412.558594 116.269531 412.722656 118.242188 413.230469 120.5625 C 414.546875 126.457031 417.753906 130.300781 422.46875 131.617188 C 423.882812 132.015625 428.046875 131.984375 430.144531 131.5625 C 434.203125 130.738281 438.78125 128.707031 443.238281 125.730469 C 446.183594 123.769531 449.144531 121.382812 452.269531 118.460938 C 453.613281 117.199219 453.886719 116.996094 453.804688 117.308594 C 453.121094 120.054688 452.847656 122.617188 453.039062 124.359375 C 453.601562 129.449219 456.671875 131.929688 462.386719 131.945312 C 464.578125 131.945312 466.730469 131.589844 468.964844 130.835938 C 474.175781 129.105469 478.957031 125.980469 491.078125 116.390625 C 497.039062 111.6875 499.808594 109.191406 500.726562 107.75 C 501.507812 106.503906 501.191406 105.75 499.902344 105.75 C 499.027344 105.75 498.039062 106.421875 494.296875 109.589844 C 483.085938 119.066406 473.269531 125.964844 468.183594 127.953125 C 465.828125 128.871094 464.140625 129.011719 462.839844 128.378906 C 461.988281 127.96875 461.742188 127.433594 461.753906 126.117188 C 461.796875 123.785156 463.085938 121.371094 466.992188 116.378906 C 467.648438 115.542969 474.203125 107.476562 481.578125 98.453125 C 488.953125 89.414062 494.984375 81.964844 494.984375 81.898438 C 494.984375 81.839844 494.722656 81.800781 494.40625 81.828125 C 494.078125 81.855469 490.953125 82.007812 487.445312 82.15625 C 483.933594 82.308594 480.753906 82.472656 480.355469 82.515625 L 479.644531 82.582031 L 475.4375 87.382812 C 473.132812 90.015625 471.214844 92.167969 471.1875 92.167969 C 471.171875 92.167969 471.214844 91.964844 471.28125 91.71875 C 471.554688 90.785156 471.667969 89.359375 471.527344 88.328125 C 471.023438 84.515625 467.527344 81.867188 462.085938 81.195312 C 459.632812 80.894531 455.519531 81.128906 452.230469 81.757812 C 441.25 83.84375 428.527344 90.332031 416.988281 99.699219 C 414.164062 101.988281 410.871094 104.898438 409.515625 106.296875 C 408.5 107.351562 405.472656 109.710938 403.648438 110.863281 C 400.59375 112.8125 397.027344 113.976562 394.09375 113.976562 C 392.09375 113.976562 390.378906 113.25 389.40625 111.988281 C 388.707031 111.054688 388.558594 110.425781 388.652344 108.585938 C 388.84375 104.746094 390.613281 101.714844 394.300781 98.875 C 395.425781 98.011719 396.054688 97.613281 400.316406 95.117188 C 407.5 90.921875 411.050781 88.453125 413.011719 86.328125 C 414 85.230469 414.285156 84.613281 414.21875 83.734375 C 414.121094 82.636719 413.546875 82.046875 411.886719 81.363281 C 410.339844 80.730469 406.734375 80.785156 404.019531 81.472656 C 398.933594 82.773438 395.480469 86.246094 391.421875 94.117188 L 390.3125 96.269531 L 387.378906 98.3125 C 383.566406 100.949219 376.082031 106.367188 372.585938 109.027344 C 372.21875 109.3125 372.367188 109.039062 373.300781 107.777344 C 379.398438 99.519531 381.648438 94.789062 381.976562 89.5625 C 382.140625 86.835938 381.550781 85.214844 379.785156 83.460938 C 377.988281 81.691406 376.453125 81.074219 373.535156 80.964844 C 367.542969 80.746094 361.921875 83.609375 350.640625 92.648438 C 345.734375 96.585938 338.113281 103.101562 335.972656 105.1875 C 335.191406 105.953125 334.246094 106.804688 333.890625 107.078125 C 333.519531 107.339844 332.109375 108.546875 330.722656 109.753906 C 326.367188 113.59375 318.484375 119.78125 313.945312 122.921875 C 309.011719 126.347656 304.941406 128.339844 301.707031 128.925781 C 300.457031 129.148438 298.855469 129.132812 298.277344 128.886719 C 296.796875 128.242188 295.839844 126.898438 296.003906 125.691406 C 296.277344 123.660156 298.386719 120.136719 302.773438 114.335938 C 304.40625 112.179688 304.5 112.058594 325.308594 86.09375 L 340.238281 67.480469 L 366.390625 67.480469 L 367.351562 66.136719 L 368.3125 64.808594 L 355.382812 64.738281 L 342.472656 64.667969 L 349.65625 55.769531 C 353.589844 50.886719 356.808594 46.839844 356.78125 46.785156 C 356.753906 46.730469 353.355469 46.894531 349.230469 47.128906 C 342.84375 47.496094 341.691406 47.59375 341.554688 47.785156 C 341.457031 47.910156 338.375 51.761719 334.671875 56.359375 L 327.957031 64.722656 L 322.402344 64.738281 L 316.851562 64.75 L 314.851562 67.414062 L 320.195312 67.453125 C 323.144531 67.46875 325.554688 67.523438 325.554688 67.550781 C 325.554688 67.589844 323.144531 70.445312 320.183594 73.898438 C 312.164062 83.269531 308.546875 86.75 297.59375 95.597656 C 291.835938 100.261719 287.941406 103.621094 286.078125 105.542969 C 285.585938 106.050781 284.570312 106.957031 283.816406 107.574219 C 283.0625 108.175781 280.816406 110.082031 278.8125 111.78125 C 275.015625 115.035156 270.410156 118.847656 270.027344 119.066406 C 269.863281 119.148438 269.972656 118.792969 270.382812 117.84375 C 271.382812 115.570312 271.863281 113.566406 272.027344 110.960938 C 272.207031 108.285156 271.699219 105.417969 270.082031 99.78125 C 268.328125 93.636719 267.847656 91.332031 267.847656 88.835938 C 267.847656 87.710938 267.914062 87.164062 268.136719 86.519531 C 268.792969 84.542969 269.847656 83.679688 272.4375 82.925781 C 275.097656 82.15625 277.210938 80.8125 277.855469 79.496094 C 278.414062 78.304688 278.128906 76.535156 277.222656 75.683594 C 275.960938 74.503906 273 74.203125 270.835938 75.023438 C 268.558594 75.890625 266.339844 78.042969 264.558594 81.113281 C 264.117188 81.855469 263.460938 82.457031 258.800781 86.382812 C 245.503906 97.574219 238.238281 104.007812 235.757812 106.777344 C 234.304688 108.410156 231.605469 110.316406 228.082031 112.179688 C 223.820312 114.429688 218.9375 116.046875 213.742188 116.925781 C 211.6875 117.28125 207.285156 117.75 207.175781 117.640625 C 207.109375 117.570312 210.605469 111.152344 213.402344 106.226562 C 231.109375 74.996094 248.671875 50.019531 268.835938 27.429688 C 274.660156 20.902344 282.183594 13.058594 288.050781 7.40625 C 291.589844 3.992188 292.464844 3.101562 292.21875 3.167969 C 292.191406 3.167969 290.644531 3.71875 288.75 4.375 Z M 276.878906 12.398438 C 270.492188 17.871094 264.734375 23.027344 258.320312 29.0625 C 254.441406 32.710938 244.09375 43.027344 240.691406 46.632812 C 224.65625 63.683594 211.550781 80.539062 200.390625 98.4375 C 199.324219 100.164062 198.417969 101.59375 198.378906 101.632812 C 198.335938 101.675781 198.347656 101.523438 198.40625 101.289062 C 198.625 100.371094 199.308594 96.078125 199.542969 94.160156 C 199.871094 91.320312 199.871094 84.226562 199.542969 81.222656 C 199.007812 76.464844 198.074219 72.171875 196.691406 68.167969 C 196.238281 66.851562 195.828125 65.644531 195.800781 65.492188 C 195.746094 65.273438 196.417969 64.613281 199.269531 62.117188 C 220.28125 43.753906 238.703125 30.53125 256.058594 21.382812 C 261.679688 18.421875 267.792969 15.648438 273.125 13.675781 C 276.621094 12.371094 277.101562 12.207031 276.878906 12.398438 Z M 157.636719 43.628906 C 170.988281 44.863281 181.96875 51.585938 190.289062 63.574219 L 191.058594 64.667969 L 187.738281 67.507812 C 185.929688 69.058594 182.777344 71.773438 180.734375 73.515625 C 167.65625 84.761719 155.128906 94.898438 146.328125 101.34375 L 143.726562 103.25 L 143.246094 102.964844 C 142.203125 102.359375 138.308594 99.753906 137.078125 98.847656 C 126.726562 91.183594 121.65625 83.460938 120.765625 73.996094 C 119.996094 65.738281 122.683594 58.539062 128.714844 52.765625 C 135.457031 46.304688 143.984375 43.164062 154.074219 43.4375 C 155.238281 43.464844 156.84375 43.546875 157.636719 43.628906 Z M 193.414062 69.222656 C 194.621094 72.597656 195.582031 77.179688 196.046875 81.746094 C 196.28125 84.050781 196.28125 92.292969 196.046875 94.296875 C 195.210938 101.46875 193.304688 107.832031 189.851562 115.035156 L 188.90625 116.996094 L 188.179688 116.925781 C 181.804688 116.296875 178.84375 115.882812 174.703125 115.074219 C 164.890625 113.140625 156.828125 110.261719 148.507812 105.71875 L 146.988281 104.882812 L 150.566406 102.195312 C 158.542969 96.1875 167.34375 89.027344 182.105469 76.535156 C 190.894531 69.101562 192.648438 67.632812 192.742188 67.617188 C 192.796875 67.617188 193.097656 68.34375 193.414062 69.222656 Z M 463.179688 84.476562 C 465.003906 85.050781 466.472656 86.191406 467.15625 87.5625 C 467.511719 88.273438 467.566406 88.519531 467.566406 89.5625 C 467.566406 94.117188 464.566406 100.191406 458.945312 106.96875 C 455.738281 110.824219 448.773438 117.367188 444.332031 120.699219 C 438.917969 124.746094 433.832031 127.378906 429.871094 128.1875 C 428.214844 128.515625 426.210938 128.421875 425.199219 127.941406 C 424.210938 127.488281 423.359375 126.636719 422.910156 125.648438 C 422.386719 124.550781 422.320312 122.332031 422.730469 120.3125 C 424.304688 112.6875 431.050781 102.25 439.328125 94.664062 C 445.773438 88.753906 452.558594 84.996094 458.179688 84.226562 C 459.660156 84.023438 462.125 84.144531 463.179688 84.476562 Z M 463.179688 84.476562 "/>
</g>
</svg>
